<?xml version="1.0" encoding="utf-8"?>
<!-- Svg Vector Icons : http://www.onlinewebfonts.com/icon -->
<!DOCTYPE svg PUBLIC "-//W3C//DTD SVG 1.1//EN" "http://www.w3.org/Graphics/SVG/1.1/DTD/svg11.dtd">
<svg version="1.1" xmlns="http://www.w3.org/2000/svg" xmlns:xlink="http://www.w3.org/1999/xlink" x="0px" y="0px" viewBox="0 0 256 256" enable-background="new 0 0 256 256" xml:space="preserve">
<metadata> Svg Vector Icons : http://www.onlinewebfonts.com/icon </metadata>
<g><g><path stroke-width="2" fill-opacity="0" stroke="#000000"  d="M166.4,64.7c-33.5,0-60.7,28.4-60.7,63.4c0,35,27.2,63.4,60.7,63.4s60.7-28.4,60.7-63.4C227.1,93,200,64.7,166.4,64.7L166.4,64.7z M166.4,183.5c-29.4,0-53.2-24.9-53.2-55.5s23.8-55.5,53.2-55.5s53.2,24.9,53.2,55.5S195.8,183.5,166.4,183.5L166.4,183.5z M172.6,120.6c-6.4-2.6-10-4.4-11-5.2c-1-0.8-1.4-1.7-1.4-2.5c0-3.2,2.3-4.9,6.8-4.9c6.2,0,12.9,2.3,20.1,6.9v-14c-4.5-2.4-9.5-3.9-14.8-4.4V85.9h-14.5v11.7c-3.1,0.9-5.9,2.3-8.2,4.1c-4.6,3.6-6.9,8.3-6.9,14c0,3.9,1.2,7.4,3.6,10.5c2.4,3.2,6.8,6,13.3,8.7c6.5,2.6,10.3,4.5,11.4,5.5c1.1,1.1,1.7,2.2,1.7,3.4c0,3.1-3.1,4.6-9.2,4.6c-5.2,0-11.7-1.8-19.5-5.3V157c4.2,2,8.8,3.3,13.8,4v9.2h14.5V161c4.6-0.8,8.5-2.3,11.4-4.8c4.3-3.6,6.4-8.6,6.4-15.1c0-4.1-1.3-7.9-3.9-11.4C183.5,126.3,179,123.2,172.6,120.6L172.6,120.6z M166.4,45c-30.3,0-56.7,17.7-70.1,43.7H36.4c-2.1,0-3.8,1.8-3.8,3.9c0,2.2,1.7,3.9,3.8,3.9h56.4c-2,5-3.5,10.3-4.5,15.8H28.4c-2.1,0-3.8,1.8-3.8,3.9c0,2.2,1.7,3.9,3.8,3.9h58.8c-0.2,2.6-0.4,5.2-0.4,7.8c0,2.7,0.1,5.3,0.4,8H18.8c-2.1,0-3.8,1.8-3.8,3.9c0,2.2,1.7,3.9,3.8,3.9h69.5c1,5.4,2.5,10.6,4.4,15.5H29.1c-2.1,0-3.8,1.8-3.8,3.9s1.7,3.9,3.8,3.9h67.1c2.9,5.7,6.5,11,10.6,15.8H13.8c-2.1,0-3.8,1.8-3.8,3.9s1.7,3.9,3.8,3.9h100.7c13.9,12.5,32.1,20.1,51.9,20.1c43.9,0,79.6-37.2,79.6-83C246,82.2,210.4,45,166.4,45L166.4,45z M166.4,203.2c-39.8,0-72.1-33.6-72.1-75.2c0-41.5,32.3-75.2,72.1-75.2c39.8,0,72.1,33.6,72.1,75.2C238.5,169.5,206.2,203.2,166.4,203.2L166.4,203.2z"/></g></g>
</svg>